# xmcd
#
# Track frame offsets:
#	150
#	15574
#	32961
#	46726
#	59943
#	79798
#	93612
#	111463
#	114246
#	131438
#	146436
#	170067
#	182245
#	201158
#	209789
#	226683
#	245851
#	260424
#
# Disc length: 3719 seconds
#
# Revision: 1
# Processed by: cddbd v1.5.1PL0 Copyright (c) Steve Scherf et al.
# Submitted via: audiograbber 1.83.01
#
DISCID=0f0e8512
DTITLE=Buffalo C. Wayne - Geronimo
DYEAR=1900
DGENRE=Country
TTITLE0=Jetfighter
TTITLE1=Borderline
TTITLE2=Hollywood
TTITLE3=Roll on big Mama - Six days on the road
TTITLE4=Geronimo (never gave up)
TTITLE5=Satisfaction guaranteed
TTITLE6=Purple tear
TTITLE7=Bob's radio speech
TTITLE8=Texas cooking
TTITLE9=Voodoo queen
TTITLE10=Wanna be near you
TTITLE11=Let it roll
TTITLE12=A holiday in Mexico
TTITLE13=King of the neonlight
TTITLE14=Memories
TTITLE15=Buckskin man
TTITLE16=The coldest night since 1951
TTITLE17=Indian summer meditation
EXTD=
EXTT0=
EXTT1=
EXTT2=
EXTT3=
EXTT4=
EXTT5=
EXTT6=
EXTT7=
EXTT8=
EXTT9=
EXTT10=
EXTT11=
EXTT12=
EXTT13=
EXTT14=
EXTT15=
EXTT16=
EXTT17=
PLAYORDER=
